<svg width="24" height="24" viewBox="0 0 24 24" fill="none" xmlns="http://www.w3.org/2000/svg">
<path d="M23.6703 9.56005L21.6703 7.74005L14.0003 0.780046C13.4502 0.288091 12.7382 0.0161133 12.0003 0.0161133C11.2623 0.0161133 10.5503 0.288091 10.0003 0.780046L2.35026 7.78005L0.350263 9.60005C0.215588 9.7367 0.123067 9.9092 0.0837369 10.097C0.0444067 10.2848 0.0599278 10.4799 0.128449 10.6591C0.196969 10.8383 0.315597 10.994 0.47018 11.1077C0.624762 11.2213 0.808774 11.2881 1.00026 11.3C1.25355 11.2886 1.49304 11.1814 1.67026 11L2.00026 10.7V21C2.00026 21.7957 2.31633 22.5588 2.87894 23.1214C3.44155 23.684 4.20461 24 5.00026 24H19.0003C19.7959 24 20.559 23.684 21.1216 23.1214C21.6842 22.5588 22.0003 21.7957 22.0003 21V10.74L22.3303 11.04C22.5137 11.2067 22.7524 11.2994 23.0003 11.3C23.2019 11.2995 23.3986 11.2381 23.5647 11.1237C23.7308 11.0094 23.8584 10.8475 23.9309 10.6594C24.0033 10.4712 24.0172 10.2656 23.9707 10.0694C23.9242 9.8732 23.8195 9.69566 23.6703 9.56005Z" fill="#7F3DFF"/>
</svg>
